<svg xmlns="http://www.w3.org/2000/svg" viewBox="0 0 64 64" role="img" aria-label="BoysChanger">
  <rect width="64" height="64" rx="14" fill="#0f1a16"/>
  <path d="M21 26c-2.2 2.8-2.2 9.2 0 12" fill="none" stroke="#d4ff4a" stroke-width="3.5" stroke-linecap="round"/>
  <path d="M16.5 22c-4.2 5-4.2 15 0 20" fill="none" stroke="#d4ff4a" stroke-width="3.5" stroke-linecap="round"/>
  <path d="M12 18c-6.2 7.2-6.2 20.8 0 28" fill="none" stroke="#d4ff4a" stroke-width="3.5" stroke-linecap="round"/>
  <path d="M43 26c2.2 2.8 2.2 9.2 0 12" fill="none" stroke="#d4ff4a" stroke-width="3.5" stroke-linecap="round"/>
  <path d="M47.5 22c4.2 5 4.2 15 0 20" fill="none" stroke="#d4ff4a" stroke-width="3.5" stroke-linecap="round"/>
  <path d="M52 18c6.2 7.2 6.2 20.8 0 28" fill="none" stroke="#d4ff4a" stroke-width="3.5" stroke-linecap="round"/>
  <circle cx="27.5" cy="29.5" r="2.4" fill="#d4ff4a"/>
  <circle cx="36.5" cy="29.5" r="2.4" fill="#d4ff4a"/>
  <path d="M26.5 36.5c3 3.5 7.5 3.5 10.5 0" fill="none" stroke="#d4ff4a" stroke-width="3.5" stroke-linecap="round"/>
</svg>
